<svg width="20" height="19" viewBox="0 0 20 19" fill="none"
    xmlns="http://www.w3.org/2000/svg">
    <path d="M14.0383 16.0711L13.495 11.7212C13.418 11.1051 13.1186 10.5383 12.653 10.1275C12.1875 9.71661 11.5879 9.49 10.9669 9.49023H9.09589C8.47525 9.49041 7.87604 9.71721 7.41083 10.128C6.94562 10.5388 6.64643 11.1054 6.56947 11.7212L6.02531 16.0711C5.99545 16.3101 6.01677 16.5527 6.08786 16.7828C6.15895 17.0129 6.27818 17.2253 6.43764 17.4058C6.5971 17.5863 6.79313 17.7308 7.01272 17.8297C7.23232 17.9286 7.47044 17.9797 7.71128 17.9795H12.3532C12.594 17.9796 12.832 17.9284 13.0515 17.8294C13.271 17.7305 13.4669 17.586 13.6263 17.4055C13.7857 17.225 13.9048 17.0127 13.9759 16.7826C14.0469 16.5526 14.0682 16.31 14.0383 16.0711V16.0711Z" stroke="#fff" stroke-width="1.5" stroke-linecap="round" stroke-linejoin="round"/>
    <path d="M10.0316 6.09455C11.4382 6.09455 12.5784 4.95431 12.5784 3.54776C12.5784 2.14121 11.4382 1.00098 10.0316 1.00098C8.6251 1.00098 7.48486 2.14121 7.48486 3.54776C7.48486 4.95431 8.6251 6.09455 10.0316 6.09455Z" stroke="#fff" stroke-width="1.5"/>
    <path d="M3.24034 8.64181C4.17804 8.64181 4.9382 7.88165 4.9382 6.94395C4.9382 6.00625 4.17804 5.24609 3.24034 5.24609C2.30264 5.24609 1.54248 6.00625 1.54248 6.94395C1.54248 7.88165 2.30264 8.64181 3.24034 8.64181Z" stroke="#fff" stroke-width="1.5"/>
    <path d="M16.8233 8.64181C17.761 8.64181 18.5212 7.88165 18.5212 6.94395C18.5212 6.00625 17.761 5.24609 16.8233 5.24609C15.8856 5.24609 15.1255 6.00625 15.1255 6.94395C15.1255 7.88165 15.8856 8.64181 16.8233 8.64181Z" stroke="#fff" stroke-width="1.5"/>
    <path d="M16.8234 11.1875H17.0832C17.4851 11.1875 17.874 11.33 18.1807 11.5897C18.4874 11.8495 18.692 12.2096 18.7581 12.6061L19.0408 14.3039C19.0814 14.5472 19.0685 14.7963 19.003 15.0341C18.9375 15.2719 18.821 15.4925 18.6616 15.6807C18.5021 15.8689 18.3037 16.02 18.0799 16.1237C17.8561 16.2274 17.6125 16.2811 17.3659 16.2811H14.2766M3.24053 11.1875H2.98076C2.57884 11.1875 2.18994 11.33 1.88324 11.5897C1.57655 11.8495 1.37194 12.2096 1.30582 12.6061L1.02313 14.3039C0.982561 14.5472 0.995473 14.7963 1.06097 15.0341C1.12646 15.2719 1.24296 15.4925 1.40237 15.6807C1.56178 15.8689 1.76027 16.02 1.98403 16.1237C2.20779 16.2274 2.45145 16.2811 2.69807 16.2811H5.78732L3.24053 11.1875Z" stroke="#fff" stroke-width="1.5" stroke-linecap="round" stroke-linejoin="round"/>
</svg>
