<svg width="44" height="44" viewBox="0 0 44 44" fill="none" xmlns="http://www.w3.org/2000/svg">
<rect width="44" height="44" rx="22" fill="#0099B5"/>
<path d="M18.3334 27.5V13.2L31.1667 11V25.3" stroke="white" stroke-width="2" stroke-linecap="round" stroke-linejoin="round"/>
<path d="M14.6667 31.1667C16.6917 31.1667 18.3333 29.5251 18.3333 27.5C18.3333 25.475 16.6917 23.8334 14.6667 23.8334C12.6416 23.8334 11 25.475 11 27.5C11 29.5251 12.6416 31.1667 14.6667 31.1667Z" stroke="white" stroke-width="2" stroke-linecap="round" stroke-linejoin="round"/>
<path d="M27.5 29.3333C29.5251 29.3333 31.1667 27.6917 31.1667 25.6667C31.1667 23.6416 29.5251 22 27.5 22C25.475 22 23.8334 23.6416 23.8334 25.6667C23.8334 27.6917 25.475 29.3333 27.5 29.3333Z" stroke="white" stroke-width="2" stroke-linecap="round" stroke-linejoin="round"/>
</svg>
