<svg xmlns="http://www.w3.org/2000/svg" xml:space="preserve" version="1.0" style="shape-rendering:geometricPrecision;text-rendering:geometricPrecision;image-rendering:optimizeQuality;fill-rule:evenodd;clip-rule:evenodd" viewBox="0 0 20000 3004.58"><defs><style>.fil0{fill:#fff;fill-rule:nonzero}</style></defs><g id="Слой_x0020_1"><g id="_2746599134624"><path class="fil0" d="M4283.75 877.72c34.86 0 66.35 8.3 94.48 24.77 30.47 17.77 53.92 40.79 70.27 69.14 16.36 28.36 24.49 61.23 24.49 98.52 0 57.72-18.23 104.86-54.77 141.32-36.54 36.36-83.07 54.59-139.7 54.59-63.18 0-113.17-21.91-149.99-65.64-30.18-35.72-45.23-78.44-45.23-128.15 0-36.92 8.51-70.07 25.51-99.43 16.92-29.28 41.03-52.49 72.24-69.52 31.21-17.03 65.51-25.6 102.7-25.6zm-.09 29.28c-28.6 0-53.08 6.45-73.64 19.25-20.46 12.79-36.91 31.67-49.35 56.52-12.32 24.95-18.49 55.7-18.49 92.26 0 34.89 6.07 64.54 18.22 88.84 12.24 24.31 28.6 42.91 49.06 55.8 20.56 12.88 43.63 19.33 69.25 19.33 25.41 0 47.94-6.35 67.55-18.96 19.64-12.62 35.8-32.51 48.6-59.66 12.81-27.16 19.25-57.28 19.25-90.51 0-33.69-6.44-64.44-19.25-92.43-10.93-24.03-25.51-41.81-43.64-53.22-18.13-11.51-40.64-17.22-67.56-17.22z"/><path id="_1" class="fil0" d="m4621.29 864.47 14.76 17.86c-37.37 30.01-56.07 55.14-56.07 75.31 0 2.39.19 5.25.57 8.66 3.27-1.47 6.35-2.49 9.25-3.13 2.98-.65 5.7-.93 8.22-.93 8.6 0 15.61 2.77 21.02 8.38 5.33 5.62 8.05 12.7 8.05 21.36 0 8.47-3.28 15.84-9.73 22.1-6.45 6.35-14.2 9.48-23.07 9.48-12.24 0-22.81-4.88-31.78-14.73-8.87-9.76-13.36-22.46-13.36-37.93 0-10.13 2.06-20.72 6.26-31.77 4.21-11.04 10.28-21.36 18.31-30.74 8.04-9.49 23.92-24.13 47.57-43.92z"/><path id="_2" class="fil0" d="M4693.34 883.81h265.21v23.01l-248.86 323.89h91.58c41.59 0 73.26-6.9 95.04-20.62 21.77-13.71 41.3-38.76 58.4-75.13l25.14 8.29-44.29 116.74h-294.93v-22.74l249.13-324.17h-79.15c-26.62 0-47.65 2.49-63.07 7.55-15.52 5.07-29.07 12.98-40.66 23.75-11.67 10.68-23.82 27.54-36.62 50.46l-23.46-11.6 46.54-99.43z"/><path id="_3" class="fil0" d="M5007.43 883.81h181.84c44.4 0 74.86 1.92 91.3 5.89 24.31 5.8 43.55 16.2 57.75 31.3 14.12 15.1 21.23 33.23 21.23 54.41 0 15.29-3.75 29-11.22 41.16-7.57 12.05-18.42 22.46-32.61 31.11-9.16 5.53-21.6 10.31-37.39 14.27 19.91 3.59 35.05 7.92 45.42 12.99 15.7 7.54 28.13 18.31 37.28 32.31 9.07 14.08 13.65 29.92 13.65 47.51 0 17.12-4.48 32.96-13.46 47.5-8.97 14.55-21.58 26.52-37.93 35.91-16.36 9.3-35.42 15.28-57.11 17.86-21.77 2.67-44.2 3.96-67.19 3.96h-191.56v-22.64h12.89c12.43 0 20.93-1.85 25.43-5.62 6.62-5.25 9.9-13.81 9.9-25.87v-261.3c0-12.33-1.03-20.8-3-25.31-2.05-4.51-5.04-7.83-9.06-9.76-4.02-2.02-11.77-3.04-23.27-3.04h-12.89v-22.64zm98.67 29.82v137.55h70.28c32.89 0 55.41-1.57 67.56-4.6 18.88-4.79 33.37-13.07 43.37-24.76 10-11.61 15.05-26.61 15.05-44.94 0-15.46-4.59-28.26-13.66-38.57-9.06-10.41-21.31-17.41-36.54-21.18-9.9-2.3-30.45-3.5-61.67-3.5h-84.39zm0 163.52v123.36c0 12.44.57 19.8 1.69 22.1 1.41 3.22 4.39 5.52 8.78 6.73 3.09.92 11.87 1.37 26.36 1.37h37.38c37 0 63.45-2.02 79.33-6.07 15.8-4.05 29.35-12.53 40.56-25.6 11.12-12.98 16.73-28.73 16.73-46.96 0-15.46-4.58-29.18-13.64-41.15-9.06-11.87-21.59-20.53-37.67-25.87-15.98-5.25-44.48-7.91-85.31-7.91h-74.21z"/><path id="_4" class="fil0" d="M5426.64 883.81h310.62l35.89 98.78-24.12 8.93c-6.06-16.2-12.6-28.91-19.8-38.11-7.11-9.3-15.71-17.13-25.7-23.57-10-6.54-20-10.78-30.19-12.99-10.18-2.11-28.59-3.22-55.14-3.22h-92.88v138.1h46.16c17.01 0 29.81-2.85 38.5-8.56 8.69-5.62 14.77-12.71 18.04-21.27 2.52-6.25 3.83-17.31 3.83-32.96v-6.25h26.91v165.16h-26.91v-14.26c0-12.63-.94-21.74-2.89-27.26-1.87-5.62-5.42-10.87-10.57-15.84-5.13-4.96-10.66-8.28-16.63-10.13-5.89-1.74-16.07-2.66-30.28-2.66h-46.16v121.89c0 12.71.56 20.45 1.77 23.21 1.22 2.76 3.18 4.78 5.9 6.07 2.8 1.2 10.28 1.84 22.52 1.84h57.46c32.06 0 57.11-3.77 75.14-11.32 18.04-7.55 33.92-19.06 47.65-34.62 10.75-12.06 21.13-29.18 30.94-51.28l24.94 8.66-42.61 117.84h-322.39v-22.64h10.93c12.71 0 20.56-.84 23.64-2.4 4.77-2.4 8.41-6.08 10.93-11.33 1.78-3.5 2.72-11.32 2.72-23.29V941.25c0-11.79-1.22-19.7-3.55-23.66-2.34-3.96-6.45-7.09-12.25-9.2-3.08-1.29-13.92-1.94-32.42-1.94v-22.64z"/><path id="_5" class="fil0" d="M5831.55 883.81h147.46v22.64h-10.36c-12.07 0-20.57 1.47-25.52 4.33-4.96 2.85-8.42 7.27-10.46 13.44-1.6 4.42-2.43 11.78-2.43 22v142.89l144-149.51c7.48-8.1 11.87-13.35 13.27-15.74 1.4-2.41 2.06-4.89 2.06-7.46 0-3.32-1.59-5.8-4.77-7.46-3.27-1.66-10.1-2.49-20.65-2.49h-8.79v-22.64h136.25v22.64c-10.75-.18-20.46 1.02-29.24 3.5-8.79 2.57-15.71 5.71-20.84 9.58-11.13 8.09-19.07 14.63-23.83 19.51l-102.52 103.12 117.09 152.83c10.56 13.81 18.97 23.29 25.14 28.45 6.17 5.16 12.61 8.74 19.15 10.77 6.54 2.12 16.83 3.14 30.66 3.14v22.64h-162.04v-22.64h9.53c10.74 0 17.19-.29 19.16-.84 3.08-.73 5.6-2.12 7.37-4.33 1.87-2.11 2.81-4.32 2.81-6.72 0-4.69-6.35-15.37-18.97-32.04l-85.88-114.98-48.96 49.16v72.18c0 12.33 1.3 20.71 3.82 25.23 2.53 4.41 6.45 7.73 11.79 9.93 4.2 1.57 15.23 2.41 33.16 2.41v22.64h-147.46v-22.64h11.5c11.5 0 19.34-1.11 23.54-3.41 4.22-2.21 7.48-5.99 9.72-11.24 2.34-5.25 3.46-14.55 3.46-27.89V946.22c0-13.07-1.12-22-3.28-26.69-2.23-4.79-5.41-8.11-9.62-10.13-4.19-1.93-13.18-2.95-26.81-2.95h-8.51v-22.64z"/><path id="_6" class="fil0" d="M6229.73 883.81h145.79v22.64h-11.21c-10.47 0-18.13 1.47-22.8 4.33-4.77 2.85-8.23 6.99-10.38 12.24-2.15 5.34-3.27 15.66-3.27 30.94v242.5c0 12.25 1.21 20.99 3.55 26.15 2.33 5.16 5.7 8.84 9.9 11.23 4.3 2.3 11.97 3.51 23 3.51h11.21v22.64h-145.79v-22.64h12.06c10.75 0 18.42-1.21 22.89-3.69 4.49-2.4 7.67-5.89 9.72-10.49 1.97-4.61 3-13.54 3-26.71V948.99c0-14.09-1.03-23.57-3-28.36-2.05-4.88-5.23-8.47-9.72-10.77-4.47-2.3-12.14-3.41-22.89-3.41h-12.06v-22.64z"/><path id="_7" class="fil0" d="M6681.38 883.81h19.72l29.24 116-25.23 7.73c-16.07-32.41-37.47-58-64.11-76.6-21.96-15.56-46.25-23.38-72.89-23.38-16.07 0-30.56 2.85-43.36 8.47-12.7 5.71-22.33 12.98-28.68 22-6.46 8.93-9.62 18.14-9.62 27.43 0 8.48 2.42 16.58 7.37 24.5 4.96 7.91 12.53 14.92 22.62 20.89 10 5.99 26.54 12.34 49.43 18.97l71.58 20.26c8.78 2.48 21.5 7.36 38.13 14.54 16.73 7.18 29.72 14.74 38.97 22.75 9.35 8.01 16.63 17.76 21.87 29.36 5.32 11.61 7.94 24.13 7.94 37.56 0 29.83-13.27 55.89-39.81 78.26-26.54 22.37-60.92 33.51-103.08 33.51-21.67 0-41.11-3.13-58.31-9.3-17.09-6.17-35.6-17.12-55.5-32.95l-12.62 36.18h-19.25l-25.42-135.33 25.23-4.98c9.35 24.86 21.68 46.03 37.2 63.34 15.41 17.4 32.51 30.48 51.21 39.41 18.78 8.83 37.84 13.25 57.18 13.25 26.36 0 49.44-7.82 69.16-23.38 16.44-13.08 24.67-28.45 24.67-46.22 0-16.29-5.98-29.65-17.86-40.05-12.04-10.4-33.63-20.07-64.66-29l-68.4-19.33c-38.41-10.96-65.51-24.95-81.21-41.99-15.7-17.03-23.55-36.64-23.55-58.64 0-17.22 5.14-33.15 15.33-47.79 10.18-14.63 25.88-26.88 47.1-36.73 21.11-9.86 44.29-14.83 69.52-14.83 21.12 0 41.41 3.6 60.75 10.87 13.63 5.07 26.26 12.24 37.75 21.64l11.59-26.43v.01z"/><path id="_8" class="fil0" d="M6802.77 871.1h19.06l2.71 12.71h233.44l2.15-12.71h20.18l40.38 110.48-24.68 8.83c-11.87-29.46-25.89-50.17-42.15-62.14-16.26-11.97-37.09-17.95-62.42-17.95-10.66 0-16.92.36-18.88 1.2-2.05.82-3.45 2.21-4.29 4.23-.85 1.94-1.22 8.19-1.22 18.78v260.83c0 12.43.66 20.9 2.06 25.23 1.3 4.32 3.27 7.64 5.88 9.94 2.53 2.39 5.99 4.05 10.47 5.06 4.39 1.02 14.39 1.57 29.81 1.76v22.64h-146.34v-22.64c16.26-.19 26.16-.74 29.9-1.66 6.35-1.75 10.93-5.16 13.65-10.23 2.7-5.05 4.11-14.36 4.11-27.89V931.03c0-8.19-.38-13.26-1.22-15.1-.84-1.74-2.42-3.12-4.67-4.14-2.24-1.01-6.91-1.47-14.02-1.47-19.9 0-35.79 2.49-47.75 7.55-11.87 5.07-23.17 13.53-33.73 25.59-10.57 12.07-19.54 27.72-27.02 46.95l-24.66-8.83 39.25-110.48z"/><path id="_9" class="fil0" d="M7345.33 877.72c34.86 0 66.35 8.3 94.47 24.77 30.47 17.77 53.93 40.79 70.28 69.14 16.35 28.36 24.49 61.23 24.49 98.52 0 57.72-18.23 104.86-54.77 141.32-36.54 36.36-83.07 54.59-139.7 54.59-63.18 0-113.17-21.91-149.99-65.64-30.18-35.72-45.23-78.44-45.23-128.15 0-36.92 8.51-70.07 25.51-99.43 16.92-29.28 41.03-52.49 72.24-69.52 31.21-17.03 65.51-25.6 102.7-25.6zm-.09 29.28c-28.6 0-53.09 6.45-73.64 19.25-20.46 12.79-36.91 31.67-49.35 56.52-12.33 24.95-18.5 55.7-18.5 92.26 0 34.89 6.08 64.54 18.23 88.84 12.24 24.31 28.6 42.91 49.06 55.8 20.55 12.88 43.63 19.33 69.25 19.33 25.41 0 47.93-6.35 67.55-18.96 19.64-12.62 35.8-32.51 48.6-59.66 12.81-27.16 19.25-57.28 19.25-90.51 0-33.69-6.44-64.44-19.25-92.43-10.93-24.03-25.51-41.81-43.64-53.22-18.13-11.51-40.65-17.22-67.56-17.22z"/><path id="_10" class="fil0" d="M7588.29 883.81h116.64l174.36 282.09V951.2c0-12.8-1.3-22.1-3.82-27.62-2.53-5.62-6.36-9.85-11.4-12.8-5.15-2.86-12.62-4.33-22.62-4.33h-9.81v-22.64h127.27v22.64h-6.81c-11.22 0-18.89.92-22.81 2.67-5.7 2.58-9.9 7.18-12.72 13.9-2.79 6.63-4.19 16.02-4.19 28.18v308.79h-33.09L7669.6 921v268.84c0 14.82.46 23.84 1.39 27.06 1.22 4.14 3.56 7.92 6.92 11.33 3.36 3.4 7.3 5.71 11.87 6.99 4.49 1.21 13.64 1.94 27.47 2.13v22.64h-128.96v-22.64h6.83c13.18 0 22.05-1.29 26.73-3.78 4.67-2.49 8.31-6.82 10.84-12.89 2.52-6.08 3.83-16.39 3.83-30.84V951.2c0-15.01-.37-24.13-1.13-27.34-1.58-6.17-4.77-10.6-9.44-13.36-4.67-2.66-13.92-4.05-27.75-4.05h-9.91v-22.64z"/><path id="_11" class="fil0" d="M8185.71 883.81h196.34c37.29 0 65.5 3.86 84.57 11.5 19.07 7.65 33.74 18.69 44.01 33.15 10.29 14.45 15.42 31.2 15.42 50.26 0 19.62-4.95 37.01-14.95 52.21-10 15.19-24.39 27.16-43.17 35.9-18.78 8.75-43.73 13.26-74.76 13.63l99.9 121.25c8.21 10.13 13.55 16.29 16.16 18.6 6.36 5.62 13.09 9.85 20.1 12.71 7.01 2.85 14.85 4.33 23.64 4.33h6.82v22.64h-87l-139.62-179.53h-48.77v116c0 12.89.46 20.99 1.3 24.22 2.06 6.07 5.23 10.4 9.62 12.89 4.49 2.49 13.1 3.78 25.9 3.78h9.71v22.64h-145.22v-22.64h13.09c9.81 0 16.35-.65 19.71-1.85 3.36-1.29 6.36-3.5 8.97-6.63 2.71-3.13 4.59-7.09 5.61-11.97.37-1.93.66-10.95.85-27.06V943.46c0-10.95-1.13-18.78-3.28-23.56-2.14-4.79-5.23-8.2-9.15-10.32-3.83-2.11-10.66-3.13-20.29-3.13h-15.51v-22.64zm98.69 29.27v141.97h78.21c26.45 0 45.14-1.66 55.8-4.88 15.32-4.33 27.28-12.25 36.16-23.75 8.78-11.61 13.18-26.24 13.18-44.1 0-15.2-3.19-27.9-9.54-38.31-6.35-10.3-15.05-18.04-25.98-23.19-11.02-5.16-27.37-7.74-49.25-7.74h-98.58z"/><path id="_12" class="fil0" d="M8588.95 883.81h310.62l35.89 98.78-24.12 8.93c-6.06-16.2-12.61-28.91-19.8-38.11-7.11-9.3-15.71-17.13-25.7-23.57-10-6.54-20-10.78-30.18-12.99-10.19-2.11-28.6-3.22-55.14-3.22h-92.89v138.1h46.16c17.01 0 29.81-2.85 38.5-8.56 8.69-5.62 14.77-12.71 18.04-21.27 2.51-6.25 3.83-17.31 3.83-32.96v-6.25h26.91v165.16h-26.91v-14.26c0-12.63-.94-21.74-2.89-27.26-1.87-5.62-5.43-10.87-10.57-15.84-5.13-4.96-10.66-8.28-16.63-10.13-5.89-1.74-16.08-2.66-30.28-2.66h-46.16v121.89c0 12.71.56 20.45 1.77 23.21 1.22 2.76 3.18 4.78 5.9 6.07 2.8 1.2 10.27 1.84 22.52 1.84h57.46c32.05 0 57.1-3.77 75.13-11.32 18.04-7.55 33.93-19.06 47.66-34.62 10.75-12.06 21.13-29.18 30.93-51.28l24.96 8.66-42.62 117.84h-322.39v-22.64h10.93c12.71 0 20.56-.84 23.64-2.4 4.77-2.4 8.41-6.08 10.93-11.33 1.78-3.5 2.72-11.32 2.72-23.29V941.25c0-11.79-1.22-19.7-3.55-23.66-2.34-3.96-6.45-7.09-12.25-9.2-3.08-1.29-13.92-1.94-32.42-1.94v-22.64z"/><path id="_13" class="fil0" d="M9249.35 883.81h19.72l29.24 116-25.22 7.73c-16.08-32.41-37.48-58-64.11-76.6-21.96-15.56-46.26-23.38-72.89-23.38-16.07 0-30.56 2.85-43.36 8.47-12.71 5.71-22.34 12.98-28.68 22-6.46 8.93-9.63 18.14-9.63 27.43 0 8.48 2.43 16.58 7.38 24.5 4.95 7.91 12.52 14.92 22.62 20.89 10 5.99 26.53 12.34 49.43 18.97l71.58 20.26c8.78 2.48 21.5 7.36 38.12 14.54 16.74 7.18 29.72 14.74 38.98 22.75 9.34 8.01 16.63 17.76 21.87 29.36 5.32 11.61 7.93 24.13 7.93 37.56 0 29.83-13.27 55.89-39.8 78.26-26.54 22.37-60.93 33.51-103.08 33.51-21.68 0-41.12-3.13-58.31-9.3-17.1-6.17-35.61-17.12-55.51-32.95l-12.62 36.18h-19.25l-25.41-135.33 25.23-4.98c9.34 24.86 21.68 46.03 37.19 63.34 15.42 17.4 32.52 30.48 51.21 39.41 18.78 8.83 37.84 13.25 57.19 13.25 26.36 0 49.43-7.82 69.15-23.38 16.44-13.08 24.67-28.45 24.67-46.22 0-16.29-5.98-29.65-17.85-40.05-12.05-10.4-33.64-20.07-64.66-29l-68.41-19.33c-38.4-10.96-65.5-24.95-81.2-41.99-15.7-17.03-23.56-36.64-23.56-58.64 0-17.22 5.15-33.15 15.33-47.79 10.19-14.63 25.89-26.88 47.1-36.73 21.12-9.86 44.29-14.83 69.53-14.83 21.11 0 41.4 3.6 60.74 10.87 13.65 5.07 26.26 12.24 37.75 21.64l11.59-26.43v.01z"/><path id="_14" class="fil0" d="M9361.21 883.81h150.92c45.79 0 77.38 2.84 94.76 8.65 21.68 6.9 39.62 18.59 53.83 35.16 14.11 16.67 21.2 37.76 21.2 63.35 0 21.82-5.42 40.7-16.15 56.62-13 19.06-28.79 32.69-47.3 40.7-18.5 8.01-47.75 12.05-87.56 12.05h-69.89v95.57c0 14.45.83 23.57 2.42 27.34 2.25 5.25 5.24 8.93 8.97 10.96 3.84 2.12 11.59 3.14 23.18 3.14h13.08v22.64h-147.46v-22.64h8.98c12.52 0 21.11-1.02 25.6-3.14 4.58-2.03 7.85-5.24 9.91-9.57 2.14-4.42 3.17-12.71 3.17-24.86V942.36c0-11.97-.93-19.98-2.9-24.03-1.86-4.14-5.04-7.09-9.52-9.02-4.4-1.94-13.18-2.86-26.26-2.86h-8.98v-22.64zm99.81 29.27v157.99h58.96c29.81 0 50.65-2.58 62.62-7.83 12.04-5.25 21.96-14.27 29.81-27.16 7.84-12.89 11.77-27.89 11.77-45.2 0-18.96-4.58-34.71-13.73-47.42-9.17-12.7-21.59-21.27-37.29-25.77-10.94-3.04-32.33-4.61-64.12-4.61h-48.02z"/><path id="_15" class="fil0" d="M9705.01 883.81h147.46v22.64h-9.9c-11.97 0-20.57 1.2-25.71 3.5-4.01 1.84-7.01 4.88-9.06 9.21-1.97 4.33-2.99 12.98-2.99 25.96v169.22c0 30.2 3.74 52.57 11.12 67.12 7.48 14.55 19.82 26.79 37.1 36.64 17.38 9.85 36.35 14.82 57.11 14.82 20.93 0 40.64-5.34 59.42-15.92 18.7-10.59 31.77-23.11 39.25-37.66 7.57-14.55 11.31-37.47 11.31-68.86V947.89c0-11.98-1.22-20.63-3.55-25.88-2.43-5.34-5.99-9.2-10.84-11.78-4.86-2.49-12.34-3.78-22.62-3.78h-10.65v-22.64h127.28v22.64h-8.79c-14.39 0-24.29 2.67-29.72 8.1-5.32 5.43-8.03 15.56-8.03 30.57v173.27c0 31.58-6.08 58-18.13 79.09-12.06 21.08-29.62 37.84-52.61 50.17-22.99 12.25-49.82 18.41-80.37 18.41-28.87 0-55.23-6.25-79.24-18.86-23.93-12.53-41.49-28.27-52.8-47.06-11.21-18.78-16.82-42.34-16.82-70.7V945.12c0-11.88-1.13-20.26-3.28-25.04-2.14-4.79-5.32-8.19-9.52-10.4-4.21-2.12-11.41-3.23-21.78-3.23h-13.64v-22.64z"/><path id="_16" class="fil0" d="M10143.38 883.81h181.85c44.38 0 74.86 1.92 91.3 5.89 24.3 5.8 43.55 16.2 57.74 31.3 14.12 15.1 21.23 33.23 21.23 54.41 0 15.29-3.74 29-11.23 41.16-7.56 12.05-18.4 22.46-32.61 31.11-9.15 5.53-21.58 10.31-37.38 14.27 19.91 3.59 35.04 7.92 45.42 12.99 15.7 7.54 28.13 18.31 37.29 32.31 9.07 14.08 13.64 29.92 13.64 47.51 0 17.12-4.48 32.96-13.45 47.5-8.98 14.55-21.59 26.52-37.94 35.91-16.36 9.3-35.42 15.28-57.11 17.86-21.76 2.67-44.19 3.96-67.18 3.96h-191.57v-22.64h12.9c12.42 0 20.93-1.85 25.41-5.62 6.63-5.25 9.9-13.81 9.9-25.87v-261.3c0-12.33-1.02-20.8-2.98-25.31-2.06-4.51-5.04-7.83-9.06-9.76-4.03-2.02-11.79-3.04-23.27-3.04h-12.9v-22.64zm98.67 29.82v137.55h70.29c32.88 0 55.4-1.57 67.55-4.6 18.88-4.79 33.37-13.07 43.37-24.76 10-11.61 15.04-26.61 15.04-44.94 0-15.46-4.57-28.26-13.64-38.57-9.07-10.41-21.31-17.41-36.54-21.18-9.91-2.3-30.46-3.5-61.67-3.5h-84.4zm0 163.52v123.36c0 12.44.57 19.8 1.69 22.1 1.4 3.22 4.4 5.52 8.78 6.73 3.08.92 11.88 1.37 26.36 1.37h37.38c37 0 63.45-2.02 79.33-6.07 15.8-4.05 29.34-12.53 40.56-25.6 11.13-12.98 16.73-28.73 16.73-46.96 0-15.46-4.57-29.18-13.64-41.15-9.07-11.87-21.59-20.53-37.67-25.87-15.97-5.25-44.48-7.91-85.31-7.91h-74.21z"/><path id="_17" class="fil0" d="M10561.46 883.81h147.48v22.64h-13.74c-10.57 0-18.04 1.02-22.44 2.95-4.39 2.02-7.56 4.97-9.62 8.74-1.97 3.78-2.98 10.59-2.98 20.35v262.02c0 12.07.46 19.25 1.39 21.55 1.03 3.22 3.46 5.62 7.11 6.99 2.61 1.11 10 1.66 22.24 1.66h20.64c23.66 0 44.21-3.31 61.59-10.03 17.39-6.73 32.43-16.48 44.94-29.28 12.63-12.8 24.77-31.94 36.36-57.36l24.39 8.11-42.7 117.84h-274.66v-22.64h12.07c11.68 0 19.52-1.02 23.54-3.05 4.02-2.02 7.11-5.33 9.35-9.94 2.15-4.69 3.27-12.7 3.27-24.03V945.12c0-13.07-1.04-21.82-2.99-26.24-2.06-4.51-4.95-7.64-8.78-9.57-3.84-1.94-11.97-2.86-24.39-2.86h-12.07v-22.64z"/><path id="_18" class="fil0" d="M10894.61 883.81h145.78v22.64h-11.21c-10.47 0-18.13 1.47-22.8 4.33-4.76 2.85-8.22 6.99-10.37 12.24-2.15 5.34-3.28 15.66-3.28 30.94v242.5c0 12.25 1.21 20.99 3.55 26.15 2.33 5.16 5.71 8.84 9.9 11.23 4.31 2.3 11.97 3.51 23 3.51h11.21v22.64h-145.78v-22.64h12.06c10.74 0 18.41-1.21 22.89-3.69 4.48-2.4 7.67-5.89 9.71-10.49 1.97-4.61 3.01-13.54 3.01-26.71V948.99c0-14.09-1.04-23.57-3.01-28.36-2.04-4.88-5.23-8.47-9.71-10.77-4.48-2.3-12.15-3.41-22.89-3.41h-12.06v-22.64z"/><path id="_19" class="fil0" d="M11090.76 883.81h147.46v22.64h-10.37c-12.06 0-20.56 1.47-25.51 4.33-4.96 2.85-8.42 7.27-10.46 13.44-1.6 4.42-2.44 11.78-2.44 22v142.89l144.01-149.51c7.48-8.1 11.86-13.35 13.27-15.74 1.4-2.41 2.05-4.89 2.05-7.46 0-3.32-1.59-5.8-4.76-7.46-3.28-1.66-10.1-2.49-20.65-2.49h-8.8v-22.64h136.26v22.64c-10.75-.18-20.47 1.02-29.25 3.5-8.79 2.57-15.7 5.71-20.84 9.58-11.13 8.09-19.06 14.63-23.82 19.51l-102.52 103.12 117.09 152.83c10.56 13.81 18.96 23.29 25.14 28.45 6.16 5.16 12.6 8.74 19.15 10.77 6.54 2.12 16.83 3.14 30.65 3.14v22.64h-162.03v-22.64h9.52c10.75 0 17.2-.29 19.16-.84 3.09-.73 5.61-2.12 7.38-4.33 1.87-2.11 2.81-4.32 2.81-6.72 0-4.69-6.35-15.37-18.97-32.04l-85.88-114.98-48.97 49.16v72.18c0 12.33 1.31 20.71 3.83 25.23 2.52 4.41 6.45 7.73 11.78 9.93 4.2 1.57 15.23 2.41 33.16 2.41v22.64h-147.45v-22.64h11.5c11.49 0 19.34-1.11 23.54-3.41 4.21-2.21 7.48-5.99 9.72-11.24 2.34-5.25 3.46-14.55 3.46-27.89V946.22c0-13.07-1.12-22-3.28-26.69-2.23-4.79-5.41-8.11-9.62-10.13-4.2-1.93-13.18-2.95-26.82-2.95h-8.5v-22.64z"/><path id="_20" class="fil0" d="M11634.17 883.81h45.69l118.31 314.59c5.78 15.74 11.68 26.24 17.66 31.3 5.89 5.06 13.93 7.65 23.92 7.65h6.07v22.64h-135.77v-22.64c4.39-.37 8.59-.56 12.8-.56 8.78 0 14.57-.92 17.29-2.67 5.32-3.41 7.93-7.74 7.93-12.89 0-3.78-2.52-13.08-7.65-27.71l-25.8-72.74h-137.74l-29.72 81.3c-3.08 8.47-4.57 14.27-4.57 17.49 0 3.6.93 6.72 2.8 9.4 1.95 2.76 4.58 4.78 7.85 6.07 3.27 1.39 8.59 2.02 15.89 2.02 4.94 0 8.96.1 12.05.29v22.64h-114.19v-22.64c10.56 0 18.22-1.02 22.89-3.14 4.59-2.03 8.69-5.34 12.15-9.94 3.46-4.51 8.03-14.18 13.73-28.91l118.41-311.55zm-47.57 210.46h117.84l-58.78-161.85-59.06 161.85z"/><path id="_21" class="fil0" d="M12131.41 883.81h19.72l29.24 116-25.22 7.73c-16.08-32.41-37.47-58-64.11-76.6-21.97-15.56-46.26-23.38-72.89-23.38-16.07 0-30.56 2.85-43.36 8.47-12.71 5.71-22.34 12.98-28.69 22-6.45 8.93-9.62 18.14-9.62 27.43 0 8.48 2.42 16.58 7.38 24.5 4.95 7.91 12.52 14.92 22.62 20.89 9.99 5.99 26.53 12.34 49.42 18.97l71.59 20.26c8.78 2.48 21.5 7.36 38.12 14.54 16.73 7.18 29.72 14.74 38.97 22.75 9.35 8.01 16.63 17.76 21.87 29.36 5.33 11.61 7.94 24.13 7.94 37.56 0 29.83-13.26 55.89-39.8 78.26-26.55 22.37-60.94 33.51-103.08 33.51-21.68 0-41.12-3.13-58.31-9.3-17.1-6.17-35.6-17.12-55.51-32.95l-12.61 36.18h-19.25l-25.42-135.33 25.22-4.98c9.35 24.86 21.69 46.03 37.2 63.34 15.42 17.4 32.52 30.48 51.2 39.41 18.79 8.83 37.85 13.25 57.19 13.25 26.36 0 49.44-7.82 69.16-23.38 16.45-13.08 24.67-28.45 24.67-46.22 0-16.29-5.98-29.65-17.85-40.05-12.05-10.4-33.64-20.07-64.66-29l-68.41-19.33c-38.41-10.96-65.5-24.95-81.2-41.99-15.7-17.03-23.56-36.64-23.56-58.64 0-17.22 5.15-33.15 15.33-47.79 10.19-14.63 25.88-26.88 47.11-36.73 21.11-9.86 44.29-14.83 69.52-14.83 21.11 0 41.4 3.6 60.74 10.87 13.64 5.07 26.26 12.24 37.75 21.64l11.59-26.43v.01z"/><path id="_22" class="fil0" d="M12240.47 883.81h145.78v22.64h-11.21c-10.47 0-18.13 1.47-22.8 4.33-4.77 2.85-8.23 6.99-10.38 12.24-2.15 5.34-3.28 15.66-3.28 30.94v242.5c0 12.25 1.22 20.99 3.56 26.15 2.33 5.16 5.7 8.84 9.9 11.23 4.3 2.3 11.97 3.51 23 3.51h11.21v22.64h-145.78v-22.64h12.05c10.75 0 18.41-1.21 22.9-3.69 4.48-2.4 7.66-5.89 9.71-10.49 1.97-4.61 3-13.54 3-26.71V948.99c0-14.09-1.03-23.57-3-28.36-2.05-4.88-5.23-8.47-9.71-10.77-4.49-2.3-12.15-3.41-22.9-3.41h-12.05v-22.64z"/><path id="_23" class="fil0" d="M12613.13 883.81h150.93c45.79 0 77.38 2.84 94.75 8.65 21.69 6.9 39.63 18.59 53.83 35.16 14.11 16.67 21.21 37.76 21.21 63.35 0 21.82-5.42 40.7-16.16 56.62-13 19.06-28.78 32.69-47.29 40.7-18.5 8.01-47.75 12.05-87.56 12.05h-69.9v95.57c0 14.45.84 23.57 2.43 27.34 2.25 5.25 5.23 8.93 8.97 10.96 3.83 2.12 11.58 3.14 23.17 3.14h13.09v22.64h-147.47v-22.64h8.99c12.51 0 21.11-1.02 25.6-3.14 4.57-2.03 7.85-5.24 9.9-9.57 2.15-4.42 3.18-12.71 3.18-24.86V942.36c0-11.97-.94-19.98-2.9-24.03-1.87-4.14-5.05-7.09-9.53-9.02-4.39-1.94-13.18-2.86-26.25-2.86h-8.99v-22.64zm99.81 29.27v157.99h58.96c29.82 0 50.65-2.58 62.62-7.83 12.05-5.25 21.96-14.27 29.81-27.16 7.84-12.89 11.77-27.89 11.77-45.2 0-18.96-4.57-34.71-13.73-47.42-9.16-12.7-21.59-21.27-37.3-25.77-10.92-3.04-32.32-4.61-64.1-4.61h-48.03z"/><path id="_24" class="fil0" d="M12963.1 883.81h196.34c37.28 0 65.51 3.86 84.56 11.5 19.07 7.65 33.74 18.69 44.02 33.15 10.29 14.45 15.42 31.2 15.42 50.26 0 19.62-4.95 37.01-14.95 52.21-10 15.19-24.39 27.16-43.17 35.9-18.79 8.75-43.73 13.26-74.77 13.63l99.91 121.25c8.21 10.13 13.54 16.29 16.16 18.6 6.36 5.62 13.08 9.85 20.09 12.71 7.01 2.85 14.86 4.33 23.65 4.33h6.82v22.64h-87l-139.62-179.53h-48.78v116c0 12.89.47 20.99 1.31 24.22 2.06 6.07 5.23 10.4 9.62 12.89 4.49 2.49 13.1 3.78 25.9 3.78h9.7v22.64h-145.21v-22.64h13.08c9.82 0 16.36-.65 19.72-1.85 3.36-1.29 6.36-3.5 8.96-6.63 2.72-3.13 4.59-7.09 5.62-11.97.37-1.93.65-10.95.85-27.06V943.46c0-10.95-1.13-18.78-3.28-23.56-2.15-4.79-5.23-8.2-9.16-10.32-3.82-2.11-10.65-3.13-20.28-3.13h-15.51v-22.64zm98.68 29.27v141.97h78.22c26.44 0 45.14-1.66 55.8-4.88 15.32-4.33 27.27-12.25 36.16-23.75 8.78-11.61 13.17-26.24 13.17-44.1 0-15.2-3.18-27.9-9.53-38.31-6.35-10.3-15.05-18.04-25.99-23.19-11.02-5.16-27.37-7.74-49.24-7.74h-98.59z"/><path id="_25" class="fil0" d="M13366.34 883.81h310.62l35.88 98.78-24.11 8.93c-6.07-16.2-12.61-28.91-19.8-38.11-7.12-9.3-15.71-17.13-25.7-23.57-10.01-6.54-20.01-10.78-30.18-12.99-10.2-2.11-28.6-3.22-55.14-3.22h-92.9v138.1h46.17c17.01 0 29.81-2.85 38.5-8.56 8.69-5.62 14.76-12.71 18.04-21.27 2.51-6.25 3.82-17.31 3.82-32.96v-6.25h26.92v165.16h-26.92v-14.26c0-12.63-.93-21.74-2.89-27.26-1.87-5.62-5.42-10.87-10.56-15.84-5.14-4.96-10.66-8.28-16.63-10.13-5.89-1.74-16.08-2.66-30.28-2.66h-46.17v121.89c0 12.71.56 20.45 1.77 23.21 1.23 2.76 3.19 4.78 5.9 6.07 2.8 1.2 10.28 1.84 22.52 1.84h57.47c32.05 0 57.1-3.77 75.13-11.32 18.04-7.55 33.92-19.06 47.66-34.62 10.74-12.06 21.12-29.18 30.93-51.28l24.96 8.66-42.62 117.84h-322.39v-22.64h10.92c12.71 0 20.57-.84 23.65-2.4 4.76-2.4 8.41-6.08 10.93-11.33 1.78-3.5 2.72-11.32 2.72-23.29V941.25c0-11.79-1.23-19.7-3.56-23.66-2.34-3.96-6.45-7.09-12.24-9.2-3.08-1.29-13.93-1.94-32.42-1.94v-22.64z"/><path id="_26" class="fil0" d="M13810.5 883.81h265.21v23.01l-248.86 323.89h91.58c41.58 0 73.26-6.9 95.04-20.62 21.77-13.71 41.3-38.76 58.4-75.13l25.14 8.29-44.29 116.74h-294.94v-22.74l249.15-324.17h-79.16c-26.62 0-47.65 2.49-63.08 7.55-15.5 5.07-29.06 12.98-40.65 23.75-11.67 10.68-23.82 27.54-36.63 50.46l-23.45-11.6 46.54-99.43z"/><path id="_27" class="fil0" d="M14124.58 883.81h145.78v22.64h-11.21c-10.47 0-18.13 1.47-22.8 4.33-4.77 2.85-8.22 6.99-10.37 12.24-2.16 5.34-3.28 15.66-3.28 30.94v242.5c0 12.25 1.22 20.99 3.56 26.15 2.33 5.16 5.69 8.84 9.9 11.23 4.3 2.3 11.96 3.51 22.99 3.51h11.21v22.64h-145.78v-22.64h12.06c10.74 0 18.41-1.21 22.89-3.69 4.49-2.4 7.67-5.89 9.72-10.49 1.96-4.61 3-13.54 3-26.71V948.99c0-14.09-1.04-23.57-3-28.36-2.05-4.88-5.23-8.47-9.72-10.77-4.48-2.3-12.15-3.41-22.89-3.41h-12.06v-22.64z"/><path id="_28" class="fil0" d="M14319.05 906.45v-22.64h136.44c62.42 0 105.97 3.86 130.63 11.59 36.36 11.33 65.79 32.41 88.41 63.34 25.04 34.16 37.57 73.48 37.57 117.86 0 30.19-6.17 58.27-18.51 84.33-12.33 25.96-28.5 46.86-48.59 62.69-16.63 13.26-36.64 22.66-60 28.18-23.36 5.43-46.91 8.19-70.64 8.19h-195.31v-22.64h15.88l5.23.27c6.74 0 12.25-1.38 16.55-4.05 4.29-2.68 7.38-6.26 9.15-10.69 1.32-3.4 1.97-11.32 1.97-23.66V947.33c0-14.27-.94-23.47-2.72-27.62-2.6-5.62-6.72-9.48-12.33-11.6-3.27-1.11-14.58-1.66-33.73-1.66zm99.24 324.26h82.71c8.22 0 21.86-1.47 40.93-4.33 19.06-2.85 32.7-6.34 40.92-10.49 12.06-6.17 23.74-16.02 35.05-29.56 11.3-13.62 19.99-29.92 26.17-48.88 6.06-18.96 9.14-40.7 9.14-65.18 0-24.22-3.08-45.3-9.14-63.16-6.18-17.78-15.33-33.79-27.67-47.97-12.33-14.27-25.98-25.04-41.12-32.5-15.04-7.55-31.86-12.24-50.46-14.18-10.09-.92-26.82-1.38-50.37-1.38h-56.16v317.63z"/><path id="_29" class="fil0" d="M14768.07 883.81h310.63l35.87 98.78-24.1 8.93c-6.08-16.2-12.62-28.91-19.81-38.11-7.11-9.3-15.7-17.13-25.7-23.57-10-6.54-20-10.78-30.18-12.99-10.19-2.11-28.6-3.22-55.14-3.22h-92.89v138.1h46.16c17.01 0 29.82-2.85 38.51-8.56 8.69-5.62 14.76-12.71 18.04-21.27 2.51-6.25 3.82-17.31 3.82-32.96v-6.25h26.92v165.16h-26.92v-14.26c0-12.63-.93-21.74-2.89-27.26-1.87-5.62-5.42-10.87-10.57-15.84-5.14-4.96-10.65-8.28-16.62-10.13-5.89-1.74-16.08-2.66-30.29-2.66h-46.16v121.89c0 12.71.56 20.45 1.77 23.21 1.22 2.76 3.18 4.78 5.9 6.07 2.8 1.2 10.27 1.84 22.52 1.84h57.47c32.05 0 57.09-3.77 75.13-11.32 18.04-7.55 33.92-19.06 47.66-34.62 10.74-12.06 21.11-29.18 30.93-51.28l24.95 8.66-42.61 117.84h-322.4v-22.64h10.94c12.7 0 20.55-.84 23.63-2.4 4.77-2.4 8.42-6.08 10.94-11.33 1.78-3.5 2.72-11.32 2.72-23.29V941.25c0-11.79-1.23-19.7-3.56-23.66-2.35-3.96-6.45-7.09-12.25-9.2-3.08-1.29-13.91-1.94-32.42-1.94v-22.64z"/><path id="_30" class="fil0" d="M15169.06 883.81h116.62l174.38 282.09V951.2c0-12.8-1.31-22.1-3.84-27.62-2.52-5.62-6.35-9.85-11.39-12.8-5.14-2.86-12.62-4.33-22.62-4.33h-9.81v-22.64h127.28v22.64h-6.82c-11.21 0-18.88.92-22.8 2.67-5.71 2.58-9.91 7.18-12.72 13.9-2.8 6.63-4.2 16.02-4.2 28.18v308.79h-33.08L15250.37 921v268.84c0 14.82.45 23.84 1.39 27.06 1.21 4.14 3.55 7.92 6.92 11.33 3.36 3.4 7.28 5.71 11.86 6.99 4.49 1.21 13.65 1.94 27.48 2.13v22.64h-128.96v-22.64h6.82c13.18 0 22.05-1.29 26.74-3.78 4.67-2.49 8.31-6.82 10.83-12.89 2.53-6.08 3.83-16.39 3.83-30.84V951.2c0-15.01-.37-24.13-1.12-27.34-1.59-6.17-4.77-10.6-9.44-13.36-4.67-2.66-13.92-4.05-27.76-4.05h-9.9v-22.64z"/><path id="_31" class="fil0" d="M15594.44 871.1h19.07l2.7 12.71h233.44l2.14-12.71h20.2l40.36 110.48-24.66 8.83c-11.88-29.46-25.9-50.17-42.15-62.14-16.26-11.97-37.1-17.95-62.43-17.95-10.65 0-16.91.36-18.88 1.2-2.05.82-3.45 2.21-4.3 4.23-.83 1.94-1.21 8.19-1.21 18.78v260.83c0 12.43.65 20.9 2.06 25.23 1.3 4.32 3.26 7.64 5.89 9.94 2.52 2.39 5.98 4.05 10.46 5.06 4.4 1.02 14.39 1.57 29.81 1.76v22.64h-146.34v-22.64c16.26-.19 26.17-.74 29.9-1.66 6.36-1.75 10.94-5.16 13.65-10.23 2.71-5.05 4.12-14.36 4.12-27.89V931.03c0-8.19-.38-13.26-1.23-15.1-.84-1.74-2.43-3.12-4.68-4.14-2.22-1.01-6.9-1.47-14.01-1.47-19.9 0-35.78 2.49-47.75 7.55-11.87 5.07-23.18 13.53-33.74 25.59-10.55 12.07-19.53 27.72-27 46.95l-24.67-8.83 39.25-110.48z"/><path id="_32" class="fil0" d="M15929.82 883.81h145.79v22.64h-11.21c-10.47 0-18.14 1.47-22.81 4.33-4.77 2.85-8.23 6.99-10.37 12.24-2.15 5.34-3.28 15.66-3.28 30.94v242.5c0 12.25 1.22 20.99 3.56 26.15 2.33 5.16 5.7 8.84 9.9 11.23 4.3 2.3 11.97 3.51 23 3.51h11.21v22.64h-145.79v-22.64h12.06c10.75 0 18.41-1.21 22.89-3.69 4.49-2.4 7.67-5.89 9.72-10.49 1.97-4.61 2.99-13.54 2.99-26.71V948.99c0-14.09-1.02-23.57-2.99-28.36-2.05-4.88-5.23-8.47-9.72-10.77-4.48-2.3-12.14-3.41-22.89-3.41h-12.06v-22.64z"/><path id="_33" class="fil0" d="M16303.62 883.81h147.46v22.64h-10.09c-11.77 0-20.1 1.11-25.14 3.23-5.05 2.21-8.5 5.98-10.56 11.41-1.59 3.96-2.44 12.34-2.44 25.13v104.96h198.49V948.99c0-13.91-.46-22.29-1.39-25.23-1.41-5.71-4.59-10.13-9.36-12.98-4.85-2.86-12.14-4.33-21.95-4.33h-14.95v-22.64h145.77v22.64h-13.18c-10.18 0-17.47 1.11-21.67 3.41-4.3 2.21-7.38 5.25-9.06 9.11-1.78 3.96-2.62 12.25-2.62 25.04v256.32c0 14.27.93 23.29 2.71 27.16 1.86 3.87 5.51 6.63 10.93 8.2 3.37 1.1 14.3 1.66 32.89 1.66v22.64h-145.77v-22.64h10.65c13.37 0 22.33-.92 26.82-2.68 4.4-1.75 7.28-4.6 8.5-8.56 1.13-3.04 1.68-12.52 1.68-28.54v-117.11h-198.49v119.87c0 14.27.94 23.29 2.9 27.25 1.88 3.96 5.61 6.72 11.12 8.11 4.02 1.1 15.43 1.66 34.21 1.66v22.64h-147.46v-22.64h9.34c14.2 0 23.09-.74 26.64-2.31 3.64-1.57 6.44-4.51 8.49-8.84 2.15-4.32 3.19-12.06 3.19-23.11V944.01c0-11.69-.94-19.79-2.9-24.3-1.87-4.51-4.96-7.82-8.98-10.03-4.11-2.12-10.92-3.23-20.46-3.23h-15.32v-22.64z"/><path id="_34" class="fil0" d="M16747.03 883.81h147.46v22.64h-9.9c-11.96 0-20.56 1.2-25.7 3.5-4.02 1.84-7.01 4.88-9.06 9.21-1.97 4.33-3 12.98-3 25.96v169.22c0 30.2 3.75 52.57 11.13 67.12 7.47 14.55 19.81 26.79 37.09 36.64 17.39 9.85 36.36 14.82 57.1 14.82 20.93 0 40.65-5.34 59.44-15.92 18.69-10.59 31.77-23.11 39.25-37.66 7.57-14.55 11.3-37.47 11.3-68.86V947.89c0-11.98-1.22-20.63-3.55-25.88-2.43-5.34-5.98-9.2-10.83-11.78-4.87-2.49-12.35-3.78-22.62-3.78h-10.65v-22.64h127.27v22.64h-8.79c-14.39 0-24.29 2.67-29.71 8.1-5.33 5.43-8.04 15.56-8.04 30.57v173.27c0 31.58-6.07 58-18.13 79.09-12.06 21.08-29.62 37.84-52.61 50.17-22.99 12.25-49.81 18.41-80.36 18.41-28.88 0-55.23-6.25-79.25-18.86-23.93-12.53-41.49-28.27-52.79-47.06-11.22-18.78-16.82-42.34-16.82-70.7V945.12c0-11.88-1.13-20.26-3.28-25.04-2.15-4.79-5.33-8.19-9.53-10.4-4.2-2.12-11.4-3.23-21.78-3.23h-13.64v-22.64z"/><path id="_35" class="fil0" d="M17230.26 883.81h265.2v23.01l-248.86 323.89h91.59c41.58 0 73.27-6.9 95.03-20.62 21.79-13.71 41.31-38.76 58.41-75.13l25.14 8.29-44.29 116.74h-294.93v-22.74l249.13-324.17h-79.15c-26.63 0-47.65 2.49-63.07 7.55-15.51 5.07-29.07 12.98-40.65 23.75-11.68 10.68-23.83 27.54-36.63 50.46l-23.46-11.6 46.53-99.43h.01z"/><path id="_36" class="fil0" d="M17543.22 883.81h147.47v22.64h-9.91c-11.96 0-20.57 1.2-25.7 3.5-4.01 1.84-7.02 4.88-9.06 9.21-1.97 4.33-3 12.98-3 25.96v169.22c0 30.2 3.74 52.57 11.13 67.12 7.47 14.55 19.81 26.79 37.09 36.64 17.39 9.85 36.36 14.82 57.11 14.82 20.93 0 40.64-5.34 59.42-15.92 18.7-10.59 31.78-23.11 39.25-37.66 7.57-14.55 11.32-37.47 11.32-68.86V947.89c0-11.98-1.23-20.63-3.56-25.88-2.42-5.34-5.99-9.2-10.84-11.78-4.86-2.49-12.34-3.78-22.62-3.78h-10.65v-22.64h127.28v22.64h-8.78c-14.39 0-24.3 2.67-29.73 8.1-5.32 5.43-8.02 15.56-8.02 30.57v173.27c0 31.58-6.09 58-18.14 79.09-12.05 21.08-29.61 37.84-52.61 50.17-22.98 12.25-49.82 18.41-80.37 18.41-28.87 0-55.22-6.25-79.24-18.86-23.92-12.53-41.49-28.27-52.8-47.06-11.21-18.78-16.82-42.34-16.82-70.7V945.12c0-11.88-1.12-20.26-3.27-25.04-2.15-4.79-5.33-8.19-9.53-10.4-4.21-2.12-11.4-3.23-21.77-3.23h-13.65v-22.64z"/><path id="_37" class="fil0" d="M17986.63 883.81h196.35c37.28 0 65.5 3.86 84.56 11.5 19.07 7.65 33.74 18.69 44.02 33.15 10.28 14.45 15.42 31.2 15.42 50.26 0 19.62-4.95 37.01-14.95 52.21-10.01 15.19-24.39 27.16-43.18 35.9-18.78 8.75-43.73 13.26-74.76 13.63l99.91 121.25c8.21 10.13 13.54 16.29 16.16 18.6 6.35 5.62 13.08 9.85 20.09 12.71 7.01 2.85 14.85 4.33 23.64 4.33h6.82v22.64h-86.99l-139.62-179.53h-48.78v116c0 12.89.47 20.99 1.3 24.22 2.07 6.07 5.24 10.4 9.63 12.89 4.48 2.49 13.09 3.78 25.89 3.78h9.71v22.64h-145.22v-22.64h13.09c9.82 0 16.36-.65 19.72-1.85 3.35-1.29 6.36-3.5 8.96-6.63 2.72-3.13 4.59-7.09 5.62-11.97.36-1.93.65-10.95.84-27.06V943.46c0-10.95-1.13-18.78-3.27-23.56-2.15-4.79-5.23-8.2-9.16-10.32-3.83-2.11-10.65-3.13-20.28-3.13h-15.52v-22.64zm98.69 29.27v141.97h78.21c26.45 0 45.15-1.66 55.8-4.88 15.33-4.33 27.28-12.25 36.16-23.75 8.78-11.61 13.18-26.24 13.18-44.1 0-15.2-3.18-27.9-9.53-38.31-6.35-10.3-15.05-18.04-25.99-23.19-11.02-5.16-27.37-7.74-49.24-7.74h-98.59z"/><path id="_38" class="fil0" d="M18385.39 883.81h145.77v22.64h-11.21c-10.47 0-18.12 1.47-22.8 4.33-4.76 2.85-8.22 6.99-10.37 12.24-2.15 5.34-3.28 15.66-3.28 30.94v242.5c0 12.25 1.21 20.99 3.55 26.15s5.71 8.84 9.91 11.23c4.3 2.3 11.96 3.51 22.99 3.51h11.21v22.64h-145.77v-22.64h12.05c10.74 0 18.41-1.21 22.89-3.69 4.49-2.4 7.67-5.89 9.72-10.49 1.97-4.61 3-13.54 3-26.71V948.99c0-14.09-1.03-23.57-3-28.36-2.05-4.88-5.23-8.47-9.72-10.77-4.48-2.3-12.15-3.41-22.89-3.41h-12.05v-22.64z"/><path id="_39" class="fil0" d="M18579.85 906.45v-22.64h136.43c62.43 0 105.97 3.86 130.65 11.59 36.35 11.33 65.79 32.41 88.4 63.34 25.04 34.16 37.56 73.48 37.56 117.86 0 30.19-6.16 58.27-18.5 84.33-12.33 25.96-28.5 46.86-48.59 62.69-16.64 13.26-36.63 22.66-59.99 28.18-23.37 5.43-46.92 8.19-70.66 8.19h-195.3v-22.64h15.89l5.23.27c6.73 0 12.24-1.38 16.54-4.05 4.29-2.68 7.38-6.26 9.16-10.69 1.31-3.4 1.97-11.32 1.97-23.66V947.33c0-14.27-.94-23.47-2.72-27.62-2.61-5.62-6.73-9.48-12.33-11.6-3.28-1.11-14.59-1.66-33.74-1.66zm99.24 324.26h82.71c8.22 0 21.86-1.47 40.93-4.33 19.06-2.85 32.7-6.34 40.93-10.49 12.05-6.17 23.73-16.02 35.03-29.56 11.31-13.62 20-29.92 26.17-48.88 6.08-18.96 9.16-40.7 9.16-65.18 0-24.22-3.08-45.3-9.16-63.16-6.17-17.78-15.32-33.79-27.66-47.97-12.33-14.27-25.98-25.04-41.11-32.5-15.05-7.55-31.87-12.24-50.47-14.18-10.09-.92-26.82-1.38-50.37-1.38h-56.16v317.63z"/><path id="_40" class="fil0" d="M19169.6 883.81h45.7l118.31 314.59c5.79 15.74 11.67 26.24 17.66 31.3 5.89 5.06 13.93 7.65 23.93 7.65h6.06v22.64h-135.77v-22.64c4.39-.37 8.59-.56 12.8-.56 8.79 0 14.58-.92 17.29-2.67 5.32-3.41 7.94-7.74 7.94-12.89 0-3.78-2.52-13.08-7.66-27.71l-25.79-72.74h-137.75l-29.72 81.3c-3.08 8.47-4.57 14.27-4.57 17.49 0 3.6.94 6.72 2.8 9.4 1.96 2.76 4.58 4.78 7.85 6.07 3.27 1.39 8.59 2.02 15.89 2.02 4.95 0 8.97.1 12.05.29v22.64h-114.19v-22.64c10.55 0 18.21-1.02 22.88-3.14 4.59-2.03 8.69-5.34 12.15-9.94 3.46-4.51 8.05-14.18 13.74-28.91l118.4-311.55zm-47.56 210.46h117.84l-58.78-161.85-59.06 161.85z"/><path id="_41" class="fil0" d="M19711.24 883.81h20l31.11 115.9-24.67 8.38c-16.45-36.54-35.32-62.61-56.63-78.26-21.39-15.55-45.6-23.38-72.6-23.38-38.79 0-71.4 15.93-97.66 47.69-26.26 31.76-39.44 69.6-39.44 113.53 0 31.57 6.74 60.57 20.19 87 13.46 26.33 31.4 46.49 53.91 60.3 22.53 13.81 46.36 20.72 71.59 20.72 16.26 0 31.78-2.95 46.53-8.75 14.68-5.8 26.64-12.7 35.8-20.81 6.72-6.07 11.31-12.8 13.73-20.07 2.34-7.36 3.46-17.59 3.27-30.65v-17.69c0-14.17-1.67-24.21-5.04-30.1-3.36-5.89-8.22-10.13-14.38-12.61-4.77-1.94-17.49-2.95-38.32-2.95v-22.65h154.19v22.65h-12.62c-10.74 0-18.04 1.01-21.97 3.13-3.91 2.03-6.81 5.25-8.69 9.48-1.77 4.33-2.7 12.8-2.7 25.32v130h-26.91l-14.49-33.14c-15.42 10.95-31.77 19.43-49.07 25.5-25.97 9.11-51.66 13.71-76.99 13.71-51.4 0-95.32-18.5-131.95-55.6-36.64-37.01-54.95-83.14-54.95-138.47 0-54.87 18.51-100.99 55.6-138.28 37.1-37.29 81.49-55.99 133.17-55.99 12.99 0 25.79 1.29 38.4 3.78 12.62 2.49 24.12 6.07 34.5 10.69 7.83 3.39 17 9.01 27.47 16.65l9.62-25.03z"/><path id="_42" class="fil0" d="M19854.21 883.81H20000v22.64h-11.22c-10.47 0-18.13 1.47-22.8 4.33-4.77 2.85-8.22 6.99-10.37 12.24-2.15 5.34-3.27 15.66-3.27 30.94v242.5c0 12.25 1.21 20.99 3.55 26.15 2.33 5.16 5.7 8.84 9.9 11.23 4.3 2.3 11.96 3.51 22.99 3.51h11.22v22.64h-145.79v-22.64h12.06c10.74 0 18.41-1.21 22.89-3.69 4.49-2.4 7.67-5.89 9.72-10.49 1.96-4.61 3-13.54 3-26.71V948.99c0-14.09-1.04-23.57-3-28.36-2.05-4.88-5.23-8.47-9.72-10.77-4.48-2.3-12.15-3.41-22.89-3.41h-12.06v-22.64z"/><path class="fil0" d="m4500.77 1594.03 47.63 180.05-73.48 20.39c-24.49-42.88-52.21-74.18-83.17-94.04-31.08-19.86-64.05-29.86-99.04-29.86-22.62 0-40.38 4.48-53.43 13.55-13.06 8.94-19.52 18.94-19.52 29.99 0 12.63 5.92 24.33 17.76 35.12 11.58 10.92 32.84 20.52 63.94 29.06l105.63 29.99c58.55 16.44 100.27 38.27 125.29 65.36 24.64 27.49 37.02 59.33 37.02 95.75 0 46.44-18.97 85.63-56.79 117.72-42.27 35.38-94.88 53.01-157.6 53.01-29.2 0-55.98-3.56-80.48-10.66-24.36-7.23-49.92-19.33-76.44-36.56l-17.36 38.53h-58.68l-38.75-208.33 73.48-17.36c17.36 42.48 44.28 78 80.88 106.41 36.74 28.53 76.98 42.74 120.72 42.74 19.78 0 36.06-2.5 49.12-7.37 12.92-4.87 22.74-11.71 29.33-20.52 6.6-8.68 9.83-17.75 9.83-27.09 0-15.39-7.54-28.68-22.74-39.72-15.48-11.18-42.53-22.1-81.02-32.88l-91.78-26.18c-13.99-3.81-32.84-11.04-56.52-21.7-23.83-10.65-42.13-21.83-54.91-33.27-12.66-11.58-23.29-26.43-31.64-44.46-8.47-18.14-12.64-37.08-12.64-57.08 0-28.53 8.08-54.71 24.22-78.65 16.15-24.06 40.51-43.4 72.95-58.26 32.43-14.86 68.22-22.36 107.65-22.36 47.52 0 90.44 11.83 128.8 35.64l15.35-26.96h56.39z"/><path id="_1_27" class="fil0" d="M4657.28 1575.88h51.95l5.51 18.15h310.75l6.72-18.15h51.95l67.56 188.87-72.67 25.12c-16.28-31.31-27.99-51.69-35.13-61.16-13.85-18.68-30.01-33.54-48.17-44.19-13.59-8.29-27.19-12.36-40.64-12.36-6.34 0-10.64 1.44-13.06 4.47-2.29 2.89-3.5 9.6-3.5 20.11v308.56c0 18.29.67 29.59 2.02 34.2 1.35 4.74 3.5 8.28 6.72 11.04 3.1 2.64 7.54 4.48 13.06 5.4 5.52.92 20.32 1.31 44.42 1.31v74.18h-268.09v-74.18h16.28c17.91 0 29.48-1.05 34.45-3.28 4.98-2.11 8.89-6.05 11.58-11.57 2.55-5.53 3.9-16.97 3.9-34.33v-315.53c0-8.94-1.07-14.6-3.23-16.97-2.02-2.24-6.59-3.41-13.32-3.41-13.72 0-29.07 4.99-45.89 14.99-16.96 9.99-32.03 24.07-45.22 42.35-5.24 7.1-16.41 27.22-33.52 60.37l-71.99-25.12 67.56-188.87z"/><path id="_2_28" class="fil0" d="M5183.35 1594.03h338.47c21.8 0 45.62 1.97 71.46 5.79 25.84 3.81 49.13 12.36 69.98 25.38 20.87 13.15 37.15 29.72 48.59 49.85 11.57 19.99 17.36 42.61 17.36 67.86 0 40.77-14.95 73.92-44.68 99.3-29.88 25.26-65.14 41.83-105.78 49.46l112.91 128.62 4.71 5.79c7.27 8.68 14 15.26 20.05 19.47 6.06 4.21 12.12 7.23 18.04 9.07 6.05 1.71 14.53 2.63 25.29 2.63h23.55v74.18h-176.02l-176.3-231.22h-45.76v107.07c0 18.41 1.08 30.12 3.1 35.12 2.16 4.99 5.52 8.81 10.1 11.17 4.56 2.51 13.85 3.68 27.85 3.68h25.17v74.18h-268.09v-74.18h24.63c12.92 0 22.07-1.31 27.46-4.07 5.51-2.64 9.55-6.71 12.11-12.1 1.34-3.16 2.02-12.76 2.02-28.93V1709.5c0-11.83-.95-20.25-2.96-25.25-2.02-5-5.25-8.28-9.7-9.86-6.32-2.76-13.59-4.21-21.79-4.21l-11.18.39h-20.59v-76.54zm201.87 88.38v138.89h81.42c32.03 0 56-2.89 71.86-8.68 15.88-5.78 27.74-14.07 35.81-24.73 7.94-10.78 11.97-23.93 11.97-39.32 0-14.07-3.76-26.18-11.17-36.3-7.54-10.13-18.16-17.62-31.89-22.49-13.73-4.87-36.34-7.37-67.56-7.37h-90.44z"/><path id="_3_29" class="fil0" d="M6013.03 1594.03h124.22l165.13 415.09c9.02 21.83 16.96 35.37 23.82 40.5 7 5.14 19.78 7.63 38.35 7.63v74.18h-260v-74.18l15.74-.39c14.41 0 24.49-1.84 30.29-5.65 5.78-3.69 8.6-8.29 8.6-13.68 0-4.61-2.42-14.08-7.53-28.54l-16.82-48.8h-166.61l-20.59 54.32c-4.17 11.57-6.33 19.07-6.33 22.76 0 4.07 1.48 7.75 4.58 11.17 2.96 3.29 7.93 5.79 14.81 7.24 4.43 1.05 16.95 1.57 37.27 1.57v74.18h-213.17v-74.18c13.73 0 23.68-1.17 30.02-3.41 6.18-2.37 11.43-5.79 15.46-10.4 4.04-4.6 8.62-13.28 13.6-25.77l169.16-423.64zm-15.87 289.61h109.01l-53.3-147.04-55.71 147.04z"/><path id="_4_30" class="fil0" d="M6433.86 1575.88h51.95l5.52 18.15h310.74l6.73-18.15h51.95l67.55 188.87-72.67 25.12c-16.27-31.31-27.98-51.69-35.12-61.16-13.86-18.68-30.01-33.54-48.17-44.19-13.6-8.29-27.19-12.36-40.66-12.36-6.32 0-10.63 1.44-13.05 4.47-2.29 2.89-3.49 9.6-3.49 20.11v308.56c0 18.29.66 29.59 2.01 34.2 1.35 4.74 3.5 8.28 6.73 11.04 3.1 2.64 7.54 4.48 13.05 5.4 5.53.92 20.32 1.31 44.41 1.31v74.18h-268.08v-74.18h16.29c17.9 0 29.48-1.05 34.45-3.28 4.98-2.11 8.88-6.05 11.57-11.57 2.56-5.53 3.91-16.97 3.91-34.33v-315.53c0-8.94-1.08-14.6-3.24-16.97-2.01-2.24-6.59-3.41-13.32-3.41-13.72 0-29.07 4.99-45.89 14.99-16.96 9.99-32.03 24.07-45.21 42.35-5.25 7.1-16.42 27.22-33.52 60.37l-71.99-25.12 67.55-188.87z"/><path id="_5_31" class="fil0" d="M6961.55 1594.03h458.91l62.72 170.72-71.47 25.12c-12.1-28.01-26.24-50.51-42.39-67.48-16.14-17.09-34.05-28.41-53.55-34.06-19.52-5.52-42.4-8.28-68.38-8.28h-83.97v134.93h27.32c20.46 0 34.31-1.44 41.45-4.46 7.13-2.9 12.25-7.63 15.34-13.95 3.1-6.3 4.71-18.8 4.71-37.61v-20.52h71.06v227.27h-71.06v-23.27c0-15.79-1.89-27.36-5.66-34.6-3.76-7.23-8.87-12.23-15.33-14.73-6.6-2.63-21-3.95-43.34-3.95h-24.49v123.51c0 13.02.67 21.04 2.02 23.94 1.21 2.76 3.9 4.99 7.67 6.44 3.77 1.58 11.98 2.37 24.62 2.37h46.17c34.45 0 63.38-4.87 87.07-14.47 23.68-9.74 44.82-25.39 63.25-46.82 18.58-21.58 32.84-47.21 42.8-76.81l72 24.2-72.14 199.91h-475.33v-74.18h13.73c18.44 0 30.82-1.31 37.14-3.81 6.32-2.63 10.77-7.1 13.32-13.55 1.35-3.81 2.03-14.73 2.03-32.74v-293.04c0-15.91-1.08-26.43-3.37-31.3-2.15-4.87-5.66-8.56-10.5-10.92-4.71-2.5-14-3.68-27.85-3.68h-24.5v-74.18z"/><path id="_6_32" class="fil0" d="M7865.25 1844.98h268.89v74.18h-20.05c-13.06 0-22.08 1.18-26.91 3.41-4.86 2.37-8.49 6.05-10.91 11.05-2.28 5-3.5 14.6-3.5 28.8v169.01h-80.74l-20.87-38.66c-24.62 15.78-50.33 27.62-76.83 35.51-26.52 7.89-54.11 11.84-82.64 11.84-50.2 0-95.96-11.97-137.14-35.78-41.18-23.8-73.88-57.08-97.84-99.96-24.09-42.75-36.07-90.75-36.07-143.75 0-52.61 11.86-99.56 35.66-141.13 23.7-41.56 56.94-74.18 99.6-98.24 42.66-23.95 88.95-35.91 138.89-35.91 24.08 0 48.18 3.02 72.27 8.94 23.95 5.92 44.54 13.81 61.62 23.68l14.54-23.94h55.18l49.66 178.08-72.54 23.15c-24.76-38.94-44.14-65.5-58.55-79.7-14.25-14.07-30.68-25.12-49.25-33.02-18.57-8.02-36.6-11.97-54.23-11.97-24.9 0-48.18 7.11-69.84 21.18-21.67 14.07-38.9 34.72-51.42 61.68-12.65 27.1-18.97 59.85-18.97 98.26 0 42.34 6.86 79.04 20.59 110.08 13.86 31.04 31.9 54.06 54.1 69.04 22.34 15 46.83 22.5 73.61 22.5 18.84 0 36.74-3.69 53.7-11.18 16.96-7.5 28.52-15.92 34.86-25.12 6.32-9.34 9.42-21.83 9.42-37.48v-19.74c0-13.67-.94-22.35-2.82-25.9-2.83-5.27-6.73-8.95-11.58-11.32-4.85-2.23-14.4-3.41-28.67-3.41h-31.22v-74.18z"/><path id="_7_33" class="fil0" d="M8169.54 1594.03h268.08v74.18h-24.5c-14.12 0-23.54 1.18-28.12 3.68-4.58 2.36-8.08 6.31-10.23 11.57-2.29 5.27-3.37 15.39-3.37 30.25v297.64c0 16.18.94 26.57 2.7 31.3 1.88 4.61 5.11 7.89 9.55 10 5.52 3.03 13.72 4.6 24.76 4.6h29.21v74.18h-268.08v-74.18h21.8c15.61 0 25.84-1.05 30.54-3.28 4.72-2.24 8.22-5.66 10.51-10.4 2.28-4.73 3.36-14.2 3.36-28.41v-298.82c0-16.7-1.08-27.61-3.36-32.88-2.29-5.26-6.06-9.33-11.32-12.22-3.77-1.98-12.64-3.03-26.91-3.03h-24.62v-74.18z"/><path id="_8_34" class="fil0" d="M8494.81 1594.03h268.08v74.18h-17.49c-16.95 0-27.31.92-31.22 2.76-6.19 2.76-10.63 6.71-13.45 11.84-2.7 5.12-4.05 14.86-4.05 28.93v142.97l171.06-155.07c7.66-6.96 12.24-11.71 13.86-14.2 1.48-2.37 2.28-4.6 2.28-6.32 0-3.68-1.48-6.44-4.57-8.15-2.97-1.84-10.63-2.76-23.15-2.76h-22.2v-74.18h249.51v74.18h-8.35c-11.57 0-19.65.52-24.09 1.71-4.44 1.18-9.95 3.68-16.42 7.49-6.46 3.95-14.8 10.27-25.03 18.95l-133.24 112.58 158.94 209.38c13.74 18.02 23.69 28.68 30.01 31.96 8.48 4.61 20.74 6.97 36.61 6.97h10.64v74.18h-278.58v-74.18h11.17c20.32 0 32.7-.92 37.14-2.76 4.3-1.71 6.46-4.08 6.46-6.97 0-3.03-4.04-10.39-12.24-22.09l-97.18-134.55-82.63 69.83v54.45c0 13.43 1.35 22.63 3.92 27.76 2.54 5.26 6.31 8.81 11.03 11.05 4.83 2.23 14.53 3.28 29.06 3.28h22.2v74.18h-268.08v-74.18h20.2c15.6 0 26.1-1.17 31.36-3.68 5.24-2.36 9.14-6.31 11.43-11.7 2.15-4.34 3.23-15 3.23-31.7v-293.83c0-15.91-1.22-26.56-3.63-31.96-2.29-5.38-6.2-9.46-11.45-12.1-5.24-2.76-14.8-4.07-28.53-4.07h-22.61v-74.18z"/><path id="_9_35" class="fil0" d="M9412.65 1594.03h268.07v74.18h-24.49c-14.13 0-23.55 1.18-28.13 3.68-4.58 2.36-8.07 6.31-10.23 11.57-2.29 5.27-3.36 15.39-3.36 30.25v297.64c0 16.18.94 26.57 2.7 31.3 1.88 4.61 5.11 7.89 9.55 10 5.51 3.03 13.72 4.6 24.76 4.6h29.2v74.18h-268.07v-74.18h21.79c15.61 0 25.84-1.05 30.55-3.28 4.71-2.24 8.22-5.66 10.51-10.4 2.28-4.73 3.35-14.2 3.35-28.41v-298.82c0-16.7-1.07-27.61-3.35-32.88-2.29-5.26-6.06-9.33-11.32-12.22-3.76-1.98-12.65-3.03-26.91-3.03h-24.62v-74.18z"/><path id="_10_36" class="fil0" d="m10152.97 1594.03 47.63 180.05-73.47 20.39c-24.5-42.88-52.22-74.18-83.17-94.04-31.09-19.86-64.06-29.86-99.06-29.86-22.6 0-40.37 4.48-53.43 13.55-13.05 8.94-19.5 18.94-19.5 29.99 0 12.63 5.92 24.33 17.76 35.12 11.57 10.92 32.83 20.52 63.93 29.06l105.64 29.99c58.54 16.44 100.26 38.27 125.29 65.36 24.63 27.49 37.01 59.33 37.01 95.75 0 46.44-18.97 85.63-56.79 117.72-42.26 35.38-94.88 53.01-157.59 53.01-29.2 0-55.99-3.56-80.49-10.66-24.36-7.23-49.92-19.33-76.43-36.56l-17.37 38.53h-58.67l-38.75-208.33 73.47-17.36c17.36 42.48 44.29 78 80.89 106.41 36.73 28.53 76.97 42.74 120.71 42.74 19.78 0 36.07-2.5 49.12-7.37 12.91-4.87 22.74-11.71 29.34-20.52 6.6-8.68 9.82-17.75 9.82-27.09 0-15.39-7.53-28.68-22.73-39.72-15.48-11.18-42.53-22.1-81.03-32.88l-91.78-26.18c-13.99-3.81-32.84-11.04-56.52-21.7-23.82-10.65-42.13-21.83-54.9-33.27-12.66-11.58-23.29-26.43-31.64-44.46-8.47-18.14-12.65-37.08-12.65-57.08 0-28.53 8.08-54.71 24.23-78.65 16.14-24.06 40.51-43.4 72.94-58.26 32.44-14.86 68.23-22.36 107.66-22.36 47.52 0 90.44 11.83 128.8 35.64l15.34-26.96h56.39z"/><path id="_11_37" class="fil0" d="M10274.23 1594.03h268.07v74.18h-23.55c-13.06 0-21.25.66-24.62 1.97-6.33 2.5-10.91 6.45-13.73 11.71-2.83 5.26-4.31 13.68-4.31 25.12v306.45c0 12.36.54 19.86 1.75 22.75 1.21 2.76 3.64 5 7.27 6.71 3.76 1.71 10.77 2.5 21.26 2.5 35.26 0 63.52-4.47 84.92-13.42 21.4-9.07 40.65-23.41 57.87-43.27 17.23-19.86 32.03-46.82 44.41-81.02l72.4 24.34-72.4 199.38h-419.34v-74.18h26.24c10.77 0 18.84-1.44 24.36-4.2 5.38-2.89 9.42-6.71 11.84-11.45 2.55-4.73 3.77-13.01 3.77-24.85v-304.61c0-12.89-1.22-22.1-3.77-27.76-2.42-5.65-5.92-9.73-10.5-12.35-4.57-2.51-12.25-3.82-23.01-3.82h-28.93v-74.18z"/><path id="_12_38" class="fil0" d="M11082.77 1585.35c87.35 0 157.86 25.91 211.97 77.6 53.96 51.82 81.01 118.37 81.01 199.52 0 54.71-12.38 103.11-37.01 145.33-24.75 42.36-58.81 74.97-102.41 97.86-43.47 23.01-95.96 34.46-157.46 34.46-81.28 0-147.77-21.84-199.58-65.37-62.58-52.48-93.8-122.71-93.8-210.7 0-81.68 27.45-148.63 82.23-200.7 54.77-51.96 126.51-78 215.05-78zm1.62 85.22c-41.86 0-75.1 15.27-99.73 45.77-31.09 38.54-46.56 88.13-46.56 148.89 0 60.77 14.41 108.9 43.33 144.28 25.04 30.25 58.01 45.38 99.06 45.38 41.17 0 74.15-15.13 98.91-45.38 29.21-36.17 43.74-84.57 43.74-145.07 0-42.62-6.18-78.39-18.71-107.32-12.52-28.94-29.34-50.64-50.73-64.98-21.27-14.33-44.42-21.57-69.31-21.57z"/><path id="_13_39" class="fil0" d="M11432.13 1594.03h268.09v74.18h-24.63c-13.6 0-22.87 1.31-27.86 4.07-4.98 2.64-8.47 6.58-10.63 11.58-2.02 5-3.09 15.91-3.09 32.62v93.77h201.06V1709.5c0-12.36-.8-20.64-2.28-25.12-2.16-6.18-5.66-10.38-10.51-12.75-4.97-2.24-15.88-3.42-32.84-3.42h-20.59v-74.18h268.09v74.18h-22.48c-15.2 0-25.3 1.18-30.28 3.68-4.98 2.36-8.48 6.05-10.49 10.79-2.03 4.73-2.96 16.04-2.96 33.66v291.6c0 18.01 1.2 29.59 3.77 34.85 2.41 5.26 6.31 8.94 11.43 11.18 5.11 2.23 16.82 3.28 35.26 3.28h15.75v74.18h-268.09v-74.18h17.5c16.43 0 27.46-1.31 33.38-3.81 5.79-2.63 9.82-6.31 11.97-11.31 2.29-4.86 3.37-16.31 3.37-34.33v-113.89h-201.06v113.89c0 18.02.8 29.2 2.29 33.67 2.68 6.45 6.72 10.66 12.25 12.76 5.37 1.97 16.54 3.02 33.23 3.02h18.44v74.18h-268.09v-74.18h18.31c15.21 0 25.97-1.31 32.03-3.81 6.06-2.63 10.22-6.18 12.51-10.79 2.29-4.73 3.37-14.86 3.37-30.5V1719.9c0-18.29-1.08-30.12-3.37-35.65-2.29-5.52-5.78-9.6-10.49-12.22-4.71-2.51-13.99-3.82-27.73-3.82h-24.63v-74.18z"/><path id="_14_40" class="fil0" d="M12390.62 1585.35c87.33 0 157.86 25.91 211.96 77.6 53.97 51.82 81.01 118.37 81.01 199.52 0 54.71-12.38 103.11-37.01 145.33-24.76 42.36-58.81 74.97-102.41 97.86-43.48 23.01-95.96 34.46-157.46 34.46-81.28 0-147.77-21.84-199.58-65.37-62.58-52.48-93.8-122.71-93.8-210.7 0-81.68 27.45-148.63 82.22-200.7 54.78-51.96 126.51-78 215.07-78zm1.61 85.22c-41.85 0-75.1 15.27-99.73 45.77-31.08 38.54-46.56 88.13-46.56 148.89 0 60.77 14.4 108.9 43.34 144.28 25.03 30.25 58 45.38 99.05 45.38 41.18 0 74.15-15.13 98.91-45.38 29.21-36.17 43.74-84.57 43.74-145.07 0-42.62-6.19-78.39-18.71-107.32-12.52-28.94-29.34-50.64-50.73-64.98-21.27-14.33-44.41-21.57-69.31-21.57z"/><path id="_15_41" class="fil0" d="M12780.09 1575.88h51.95l5.5 18.15h310.76l6.71-18.15h51.95l67.57 188.87-72.68 25.12c-16.28-31.31-27.98-51.69-35.13-61.16-13.85-18.68-30.01-33.54-48.17-44.19-13.59-8.29-27.18-12.36-40.64-12.36-6.33 0-10.64 1.44-13.06 4.47-2.29 2.89-3.49 9.6-3.49 20.11v308.56c0 18.29.67 29.59 2.01 34.2 1.35 4.74 3.5 8.28 6.73 11.04 3.09 2.64 7.53 4.48 13.06 5.4 5.51.92 20.31 1.31 44.41 1.31v74.18h-268.09v-74.18h16.29c17.9 0 29.47-1.05 34.45-3.28 4.98-2.11 8.88-6.05 11.58-11.57 2.55-5.53 3.89-16.97 3.89-34.33v-315.53c0-8.94-1.07-14.6-3.22-16.97-2.02-2.24-6.6-3.41-13.33-3.41-13.72 0-29.06 4.99-45.89 14.99-16.95 9.99-32.02 24.07-45.21 42.35-5.25 7.1-16.42 27.22-33.51 60.37l-72-25.12 67.56-188.87z"/><path id="_16_42" class="fil0" d="M13310.2 1594.03h268.07v74.18h-23.55c-13.05 0-21.26.66-24.62 1.97-6.33 2.5-10.91 6.45-13.73 11.71-2.83 5.26-4.31 13.68-4.31 25.12v306.45c0 12.36.54 19.86 1.75 22.75 1.21 2.76 3.64 5 7.26 6.71 3.77 1.71 10.77 2.5 21.28 2.5 35.26 0 63.51-4.47 84.92-13.42 21.39-9.07 40.63-23.41 57.86-43.27 17.23-19.86 32.03-46.82 44.42-81.02l72.4 24.34-72.4 199.38h-419.35v-74.18h26.24c10.77 0 18.84-1.44 24.36-4.2 5.38-2.89 9.42-6.71 11.84-11.45 2.55-4.73 3.77-13.01 3.77-24.85v-304.61c0-12.89-1.22-22.1-3.77-27.76-2.42-5.65-5.92-9.73-10.5-12.35-4.57-2.51-12.24-3.82-23.02-3.82h-28.92v-74.18z"/><path id="_17_43" class="fil0" d="M14023.05 1594.03h124.22l165.14 415.09c9.01 21.83 16.96 35.37 23.81 40.5 7 5.14 19.79 7.63 38.36 7.63v74.18h-260v-74.18l15.73-.39c14.4 0 24.5-1.84 30.29-5.65 5.78-3.69 8.61-8.29 8.61-13.68 0-4.61-2.42-14.08-7.54-28.54l-16.82-48.8h-166.61l-20.59 54.32c-4.17 11.57-6.32 19.07-6.32 22.76 0 4.07 1.48 7.75 4.57 11.17 2.97 3.29 7.94 5.79 14.81 7.24 4.44 1.05 16.95 1.57 37.27 1.57v74.18h-213.17v-74.18c13.73 0 23.68-1.17 30.01-3.41 6.19-2.37 11.44-5.79 15.48-10.4 4.04-4.6 8.61-13.28 13.6-25.77l169.15-423.64zm-15.87 289.61h109l-53.29-147.04-55.71 147.04z"/><path id="_18_44" class="fil0" d="M14404.59 1594.03h338.46c21.8 0 45.63 1.97 71.46 5.79 25.84 3.81 49.13 12.36 69.99 25.38 20.86 13.15 37.15 29.72 48.58 49.85 11.57 19.99 17.36 42.61 17.36 67.86 0 40.77-14.94 73.92-44.68 99.3-29.88 25.26-65.13 41.83-105.78 49.46l112.92 128.62 4.7 5.79c7.27 8.68 14 15.26 20.06 19.47 6.06 4.21 12.11 7.23 18.03 9.07 6.05 1.71 14.53 2.63 25.3 2.63h23.54v74.18h-176.02l-176.29-231.22h-45.77v107.07c0 18.41 1.09 30.12 3.1 35.12 2.16 4.99 5.52 8.81 10.1 11.17 4.57 2.51 13.85 3.68 27.85 3.68h25.18v74.18h-268.09v-74.18h24.63c12.91 0 22.07-1.31 27.45-4.07 5.52-2.64 9.55-6.71 12.12-12.1 1.34-3.16 2.01-12.76 2.01-28.93V1709.5c0-11.83-.95-20.25-2.96-25.25s-5.25-8.28-9.7-9.86c-6.31-2.76-13.58-4.21-21.79-4.21l-11.18.39h-20.58v-76.54zm201.86 88.38v138.89h81.43c32.02 0 55.98-2.89 71.86-8.68 15.88-5.78 27.73-14.07 35.8-24.73 7.95-10.78 11.97-23.93 11.97-39.32 0-14.07-3.76-26.18-11.17-36.3-7.53-10.13-18.16-17.62-31.89-22.49-13.72-4.87-36.33-7.37-67.56-7.37h-90.44z"/><path id="_19_45" class="fil0" d="M15508.67 1594.03h124.22l165.14 415.09c9.01 21.83 16.95 35.37 23.8 40.5 7.01 5.14 19.8 7.63 38.37 7.63v74.18h-260.01v-74.18l15.74-.39c14.41 0 24.5-1.84 30.29-5.65 5.78-3.69 8.61-8.29 8.61-13.68 0-4.61-2.43-14.08-7.54-28.54l-16.83-48.8h-166.6l-20.59 54.32c-4.18 11.57-6.32 19.07-6.32 22.76 0 4.07 1.48 7.75 4.57 11.17 2.97 3.29 7.94 5.79 14.81 7.24 4.43 1.05 16.95 1.57 37.27 1.57v74.18h-213.17v-74.18c13.73 0 23.68-1.17 30.01-3.41 6.19-2.37 11.44-5.79 15.48-10.4 4.03-4.6 8.61-13.28 13.59-25.77l169.16-423.64zm-15.87 289.61h109.01l-53.3-147.04-55.71 147.04z"/><path id="_20_46" class="fil0" d="M16214 1844.98h268.89v74.18h-20.05c-13.05 0-22.07 1.18-26.91 3.41-4.86 2.37-8.48 6.05-10.9 11.05-2.29 5-3.51 14.6-3.51 28.8v169.01h-80.74l-20.86-38.66c-24.63 15.78-50.34 27.62-76.84 35.51-26.52 7.89-54.11 11.84-82.64 11.84-50.19 0-95.95-11.97-137.13-35.78-41.19-23.8-73.89-57.08-97.84-99.96-24.09-42.75-36.07-90.75-36.07-143.75 0-52.61 11.85-99.56 35.66-141.13 23.69-41.56 56.93-74.18 99.6-98.24 42.65-23.95 88.94-35.91 138.88-35.91 24.09 0 48.18 3.02 72.27 8.94 23.95 5.92 44.54 13.81 61.63 23.68l14.53-23.94h55.19l49.66 178.08-72.55 23.15c-24.75-38.94-44.13-65.5-58.54-79.7-14.26-14.07-30.68-25.12-49.25-33.02-18.57-8.02-36.61-11.97-54.23-11.97-24.9 0-48.19 7.11-69.85 21.18-21.67 14.07-38.89 34.72-51.41 61.68-12.66 27.1-18.98 59.85-18.98 98.26 0 42.34 6.87 79.04 20.6 110.08 13.85 31.04 31.89 54.06 54.1 69.04 22.34 15 46.83 22.5 73.61 22.5 18.84 0 36.74-3.69 53.7-11.18 16.95-7.5 28.52-15.92 34.86-25.12 6.31-9.34 9.41-21.83 9.41-37.48v-19.74c0-13.67-.94-22.35-2.82-25.9-2.83-5.27-6.73-8.95-11.58-11.32-4.84-2.23-14.4-3.41-28.66-3.41H16214v-74.18z"/><path id="_21_47" class="fil0" d="M16521.52 1594.03h458.91l62.72 170.72-71.47 25.12c-12.1-28.01-26.24-50.51-42.39-67.48-16.15-17.09-34.05-28.41-53.56-34.06-19.52-5.52-42.39-8.28-68.37-8.28h-83.97v134.93h27.32c20.46 0 34.31-1.44 41.45-4.46 7.13-2.9 12.25-7.63 15.34-13.95 3.1-6.3 4.71-18.8 4.71-37.61v-20.52h71.06v227.27h-71.06v-23.27c0-15.79-1.89-27.36-5.66-34.6-3.77-7.23-8.88-12.23-15.33-14.73-6.6-2.63-21-3.95-43.34-3.95h-24.49v123.51c0 13.02.66 21.04 2.01 23.94 1.22 2.76 3.91 4.99 7.68 6.44 3.77 1.58 11.97 2.37 24.62 2.37h46.17c34.45 0 63.38-4.87 87.07-14.47 23.68-9.74 44.81-25.39 63.25-46.82 18.58-21.58 32.83-47.21 42.8-76.81l72 24.2-72.14 199.91h-475.33v-74.18h13.73c18.43 0 30.81-1.31 37.14-3.81 6.32-2.63 10.77-7.1 13.32-13.55 1.35-3.81 2.03-14.73 2.03-32.74v-293.04c0-15.91-1.09-26.43-3.38-31.3-2.15-4.87-5.65-8.56-10.49-10.92-4.71-2.5-14-3.68-27.85-3.68h-24.5v-74.18z"/><path id="_22_48" class="fil0" d="M17103.84 1594.03h222.32l161.23 313.68v-192.02c0-16.57-.94-26.83-2.82-30.91-2.56-6.18-6.06-10.53-10.64-12.89-4.43-2.5-13.05-3.68-25.97-3.68h-26.78v-74.18h226.9v74.18h-25.04c-12.51 0-21.53 1.44-26.91 4.2-5.37 2.9-9.01 6.71-11.17 11.58-2.02 4.87-3.09 15.39-3.09 31.57v415.87h-113.72l-203.62-396.14v277.25c0 15.91.94 26.04 2.96 30.51 1.89 4.34 5.52 7.76 10.5 10.39 5.11 2.5 13.99 3.81 26.51 3.81h26.25v74.18h-226.91v-74.18h23.55c13.05 0 21.94-1.05 26.78-3.28 4.85-2.24 8.75-5.92 11.58-11.32 2.83-5.38 4.3-13.54 4.3-24.33V1709.9c0-11.84-1.35-20.52-3.9-26.04-2.69-5.53-6.19-9.61-10.63-11.97-4.44-2.5-11.84-3.68-22.34-3.68h-29.34v-74.18z"/><path id="_23_49" class="fil0" d="M17737.98 1575.88h51.95l5.51 18.15h310.75l6.73-18.15h51.95l67.55 188.87-72.67 25.12c-16.28-31.31-27.98-51.69-35.12-61.16-13.86-18.68-30.01-33.54-48.18-44.19-13.59-8.29-27.18-12.36-40.65-12.36-6.32 0-10.63 1.44-13.05 4.47-2.29 2.89-3.49 9.6-3.49 20.11v308.56c0 18.29.66 29.59 2.01 34.2 1.35 4.74 3.49 8.28 6.73 11.04 3.1 2.64 7.54 4.48 13.05 5.4 5.52.92 20.32 1.31 44.41 1.31v74.18h-268.08v-74.18h16.29c17.9 0 29.48-1.05 34.45-3.28 4.98-2.11 8.88-6.05 11.57-11.57 2.56-5.53 3.91-16.97 3.91-34.33v-315.53c0-8.94-1.08-14.6-3.24-16.97-2.01-2.24-6.59-3.41-13.32-3.41-13.72 0-29.07 4.99-45.89 14.99-16.96 9.99-32.03 24.07-45.22 42.35-5.24 7.1-16.42 27.22-33.51 60.37l-72-25.12 67.56-188.87z"/><path id="_24_50" class="fil0" d="M18268.09 1594.03h268.08v74.18h-23.55c-13.06 0-21.26.66-24.62 1.97-6.33 2.5-10.91 6.45-13.74 11.71-2.82 5.26-4.3 13.68-4.3 25.12v306.45c0 12.36.54 19.86 1.75 22.75 1.21 2.76 3.63 5 7.27 6.71 3.76 1.71 10.76 2.5 21.26 2.5 35.26 0 63.52-4.47 84.92-13.42 21.4-9.07 40.64-23.41 57.87-43.27 17.22-19.86 32.02-46.82 44.41-81.02l72.4 24.34-72.4 199.38h-419.35v-74.18h26.25c10.76 0 18.84-1.44 24.36-4.2 5.38-2.89 9.42-6.71 11.84-11.45 2.55-4.73 3.77-13.01 3.77-24.85v-304.61c0-12.89-1.22-22.1-3.77-27.76-2.42-5.65-5.92-9.73-10.51-12.35-4.57-2.51-12.24-3.82-23-3.82h-28.94v-74.18z"/><path id="_25_51" class="fil0" d="M18779.36 1594.03h268.07v74.18h-24.49c-14.13 0-23.55 1.18-28.13 3.68-4.57 2.36-8.07 6.31-10.23 11.57-2.28 5.27-3.36 15.39-3.36 30.25v297.64c0 16.18.95 26.57 2.69 31.3 1.89 4.61 5.12 7.89 9.56 10 5.52 3.03 13.72 4.6 24.76 4.6h29.2v74.18h-268.07v-74.18h21.79c15.61 0 25.84-1.05 30.56-3.28 4.7-2.24 8.2-5.66 10.5-10.4 2.28-4.73 3.36-14.2 3.36-28.41v-298.82c0-16.7-1.08-27.61-3.36-32.88-2.3-5.26-6.06-9.33-11.31-12.22-3.77-1.98-12.66-3.03-26.91-3.03h-24.63v-74.18z"/><path id="_26_52" class="fil0" d="M19427.64 1844.98h268.88v74.18h-20.06c-13.05 0-22.07 1.18-26.91 3.41-4.85 2.37-8.48 6.05-10.9 11.05-2.29 5-3.5 14.6-3.5 28.8v169.01h-80.75l-20.86-38.66c-24.63 15.78-50.33 27.62-76.84 35.51-26.52 7.89-54.11 11.84-82.64 11.84-50.19 0-95.95-11.97-137.13-35.78-41.18-23.8-73.89-57.08-97.84-99.96-24.09-42.75-36.07-90.75-36.07-143.75 0-52.61 11.85-99.56 35.66-141.13 23.69-41.56 56.93-74.18 99.6-98.24 42.66-23.95 88.95-35.91 138.88-35.91 24.09 0 48.18 3.02 72.27 8.94 23.95 5.92 44.55 13.81 61.64 23.68l14.53-23.94h55.18l49.66 178.08-72.55 23.15c-24.75-38.94-44.13-65.5-58.53-79.7-14.27-14.07-30.68-25.12-49.26-33.02-18.57-8.02-36.61-11.97-54.23-11.97-24.9 0-48.18 7.11-69.85 21.18-21.67 14.07-38.89 34.72-51.41 61.68-12.65 27.1-18.97 59.85-18.97 98.26 0 42.34 6.86 79.04 20.59 110.08 13.86 31.04 31.89 54.06 54.1 69.04 22.34 15 46.83 22.5 73.61 22.5 18.84 0 36.74-3.69 53.71-11.18 16.94-7.5 28.52-15.92 34.85-25.12 6.31-9.34 9.42-21.83 9.42-37.48v-19.74c0-13.67-.95-22.35-2.83-25.9-2.82-5.27-6.73-8.95-11.57-11.32-4.85-2.23-14.4-3.41-28.67-3.41h-31.21v-74.18z"/><path id="_27_53" class="fil0" d="M19731.92 1594.03h268.07v74.18h-24.49c-14.13 0-23.55 1.18-28.13 3.68-4.58 2.36-8.07 6.31-10.23 11.57-2.29 5.27-3.36 15.39-3.36 30.25v297.64c0 16.18.94 26.57 2.69 31.3 1.89 4.61 5.12 7.89 9.56 10 5.51 3.03 13.72 4.6 24.76 4.6h29.2v74.18h-268.07v-74.18h21.79c15.61 0 25.84-1.05 30.55-3.28 4.71-2.24 8.21-5.66 10.5-10.4 2.28-4.73 3.36-14.2 3.36-28.41v-298.82c0-16.7-1.08-27.61-3.36-32.88-2.29-5.26-6.06-9.33-11.3-12.22-3.77-1.98-12.66-3.03-26.92-3.03h-24.62v-74.18z"/></g><path d="m2740.47 1701.99 15.39 26.43 743.06 1276.16h-1900.2l-.21-.57h79.47c-128.99-312.52 11.72-659.93 325.37-1007.23 434.99-481.67 1073.03-986.15 1428-1205.24-221.57 228.11-464.36 491.28-672.88 727.39-45.6 51.64-52.68 123.52-18 183.06z" style="fill:#38a644"/><path d="m1749.46 0 720.6 1237.6C1682.47 1745.54 1010.68 2345.5 527.1 3004.58H0l46.6-80.04c603.27-577.85 1197.82-1111.81 1770.72-1514.15-504.3 236.82-1011.06 667.53-1536.08 1111.18l593.49-1019.28L1749.46 0z" style="fill:#117bb9"/><path d="M472.32 3004.58c229.49-316.73 502.02-619.99 809.75-906.19 347.5-323.18 739.84-624.61 1165.68-899.13l44.61 76.63c-420.39 271.24-807.45 568.69-1150.01 887.28-286.69 266.63-542.26 548.11-760.21 841.41H472.32zm1078.46-.57c-121.33-338.76 60.23-704.51 387.1-1066.47 382.83-423.91 1333.04-1112.7 1493.47-1146.01-354.97 219.09-993.01 723.58-1428 1205.25-313.64 347.3-454.36 694.71-325.37 1007.23h-127.2z" style="fill:#c30100;fill-rule:nonzero"/></g></svg>